<?xml version="1.0" encoding="utf-8"?>
<!-- Generator: Adobe Illustrator 19.0.0, SVG Export Plug-In . SVG Version: 6.00 Build 0)  -->
<svg version="1.1" id="Layer_1" xmlns="http://www.w3.org/2000/svg" xmlns:xlink="http://www.w3.org/1999/xlink" x="0px" y="0px"
	 viewBox="0 0 415.8 114.4" style="enable-background:new 0 0 415.8 114.4;" xml:space="preserve">
<style type="text/css">
	.st0{fill:#DD9A9C;}
	.st1{fill:none;}
	.st2{fill:#446474;}
</style>
<g id="XMLID_2_">
	<path id="XMLID_8_" class="st0" d="M19.1,75.4c0,16.7,12.4,23.4,27.7,23.4c16.8,0,23.1-8.4,23.1-16.5c0-8.4-4.6-11.8-9-13.5
		c-7.8-2.9-17.4-4.9-32.6-9C9.5,54.9,4.1,43.5,4.1,32.1C4.1,10.1,24.3,0,44.1,0C66.7,0,86,12.1,86,34.9H66.9
		c-1.1-14.1-10.3-19.3-23.6-19.3c-8.9,0-20,3.2-20,14.2c0,7.8,5.2,11.8,13,14.1c1.7,0.5,25.9,6.7,31.5,8.4C82,56.8,89,68.5,89,80.2
		c0,24.5-21.9,34.3-43.5,34.3c-24.9,0-45.1-11.9-45.6-39H19.1z"/>
	<path id="XMLID_13_" class="st0" d="M233.5,2.6h19.1v109.2h-19.1V2.6z"/>
	<g id="XMLID_70_">
		<path id="XMLID_71_" class="st1" d="M174.7,18.2h-49.8v36.1h49.5c8.6,0,19.1-4.3,19.1-18.1C193.5,21.9,184.7,18.2,174.7,18.2z"/>
		<path id="XMLID_74_" class="st0" d="M221,37c0-6.2-4.3-11.4-10.1-12.7c-3.4-11-12.8-21.7-35.4-21.7h-69.7v109.2h19.1V69.9h50.6
			c21.7,0,31.2-9.6,35-20.1C216.4,48.7,221,43.4,221,37z M174.3,54.3h-49.5V18.2h49.8c10.1,0,18.8,3.7,18.8,18.1
			C193.5,50,182.9,54.3,174.3,54.3z"/>
	</g>
	<g id="XMLID_1_">
		<path id="XMLID_3_" class="st2" d="M269.4,22.4c0,3.1,2.4,4.3,5.1,4.3c1.8,0,4.5-0.5,4.5-2.9c0-2.5-3.5-2.9-6.9-3.8
			c-3.4-0.8-6.9-2.3-6.9-6.6c0-4.8,4.5-7,8.6-7c4.8,0,9.3,2.1,9.3,7.5h-4.9c-0.2-2.8-2.1-3.5-4.6-3.5c-1.6,0-3.5,0.7-3.5,2.6
			c0,1.8,1.1,2,6.9,3.5c1.7,0.4,6.9,1.5,6.9,6.7c0,4.2-3.3,7.4-9.6,7.4c-5.1,0-9.9-2.5-9.8-8.2H269.4z"/>
		<path id="XMLID_5_" class="st2" d="M286.5,13.3h4.4v2.1h0.1c1.1-1.8,2.9-2.6,5-2.6c5.2,0,7.6,4.2,7.6,9c0,4.5-2.4,8.6-7.4,8.6
			c-2,0-3.9-0.9-5-2.5h-0.1v8h-4.6V13.3z M298.9,21.7c0-2.7-1.1-5.4-4-5.4c-3,0-4,2.7-4,5.4s1,5.3,4,5.3
			C298,27,298.9,24.5,298.9,21.7z"/>
		<path id="XMLID_15_" class="st2" d="M314.4,12.9c5.3,0,8.7,3.5,8.7,8.8c0,5.3-3.4,8.8-8.7,8.8c-5.2,0-8.6-3.5-8.6-8.8
			C305.8,16.4,309.2,12.9,314.4,12.9z M314.4,27c3.1,0,4.1-2.7,4.1-5.3c0-2.7-0.9-5.4-4.1-5.4c-3.1,0-4,2.7-4,5.4
			C310.4,24.4,311.3,27,314.4,27z"/>
		<path id="XMLID_18_" class="st2" d="M326.2,6.9h4.6v23.1h-4.6V6.9z"/>
		<path id="XMLID_20_" class="st2" d="M334.4,13.3h4.4v2.3h0.1c1.2-1.9,3.2-2.8,5.1-2.8c4.9,0,6.1,2.8,6.1,6.9v10.3h-4.6v-9.5
			c0-2.8-0.8-4.1-2.9-4.1c-2.5,0-3.6,1.4-3.6,4.8v8.8h-4.6V13.3z"/>
		<path id="XMLID_22_" class="st2" d="M361.8,12.9c5.3,0,8.7,3.5,8.7,8.8c0,5.3-3.4,8.8-8.7,8.8c-5.2,0-8.6-3.5-8.6-8.8
			C353.1,16.4,356.5,12.9,361.8,12.9z M361.8,27c3.1,0,4.1-2.7,4.1-5.3c0-2.7-0.9-5.4-4.1-5.4c-3.1,0-4,2.7-4,5.4
			C357.7,24.4,358.7,27,361.8,27z"/>
		<path id="XMLID_25_" class="st2" d="M266,45.8h10.4c5.8,0,8,3.7,8,7.4s-2.2,7.4-8,7.4h-5.3v8.3H266V45.8z M271.1,56.7h4
			c2.3,0,4.5-0.5,4.5-3.5c0-2.9-2.1-3.5-4.5-3.5h-4V56.7z"/>
		<path id="XMLID_28_" class="st2" d="M287.1,52.2h4.4v3.1h0.1c0.9-2.1,3-3.6,5.3-3.6c0.4,0,0.7,0.1,1,0.2v4.3
			c-0.4-0.1-1.1-0.2-1.7-0.2c-3.4,0-4.5,2.4-4.5,5.4v7.5h-4.6V52.2z"/>
		<path id="XMLID_30_" class="st2" d="M303.5,61.7c0.1,2.9,1.5,4.2,4.1,4.2c1.8,0,3.3-1.1,3.6-2.2h4c-1.3,4-4,5.6-7.8,5.6
			c-5.3,0-8.6-3.6-8.6-8.8c0-5,3.5-8.8,8.6-8.8c5.7,0,8.5,4.8,8.1,9.9H303.5z M311,58.8c-0.4-2.3-1.4-3.6-3.7-3.6
			c-3,0-3.7,2.3-3.8,3.6H311z"/>
		<path id="XMLID_33_" class="st2" d="M318.3,52.2h4.4v2.3h0.1c1.2-1.9,3.2-2.8,5.1-2.8c4.9,0,6.1,2.8,6.1,6.9v10.3h-4.6v-9.5
			c0-2.8-0.8-4.1-2.9-4.1c-2.5,0-3.6,1.4-3.6,4.8v8.8h-4.6V52.2z"/>
		<path id="XMLID_35_" class="st2" d="M345.6,51.7c5.3,0,8.7,3.5,8.7,8.8c0,5.3-3.4,8.8-8.7,8.8c-5.2,0-8.6-3.5-8.6-8.8
			C337,55.2,340.4,51.7,345.6,51.7z M345.6,65.9c3.1,0,4.1-2.7,4.1-5.3c0-2.7-0.9-5.4-4.1-5.4c-3.1,0-4,2.7-4,5.4
			C341.6,63.3,342.5,65.9,345.6,65.9z"/>
		<path id="XMLID_38_" class="st2" d="M360.8,63.5c0,2,1.7,2.8,3.5,2.8c1.3,0,3-0.5,3-2.1c0-1.4-1.9-1.9-5.2-2.6
			c-2.7-0.6-5.3-1.5-5.3-4.5c0-4.3,3.7-5.4,7.3-5.4c3.6,0,7,1.2,7.4,5.3h-4.4c-0.1-1.8-1.5-2.3-3.1-2.3c-1,0-2.6,0.2-2.6,1.6
			c0,1.7,2.6,1.9,5.2,2.5c2.7,0.6,5.3,1.6,5.3,4.7c0,4.4-3.9,5.8-7.6,5.8c-3.9,0-7.7-1.5-7.9-5.9H360.8z"/>
		<path id="XMLID_40_" class="st2" d="M379.4,49.6h-4.6v-3.8h4.6V49.6z M374.8,52.2h4.6v16.7h-4.6V52.2z"/>
		<path id="XMLID_43_" class="st2" d="M392.3,68.9h-5.1l-5.7-16.7h4.8l3.5,11.4h0.1l3.5-11.4h4.6L392.3,68.9z"/>
		<path id="XMLID_45_" class="st2" d="M403.7,61.7c0.1,2.9,1.5,4.2,4.1,4.2c1.8,0,3.3-1.1,3.6-2.2h4c-1.3,4-4,5.6-7.8,5.6
			c-5.3,0-8.6-3.6-8.6-8.8c0-5,3.5-8.8,8.6-8.8c5.7,0,8.5,4.8,8.1,9.9H403.7z M411.1,58.8c-0.4-2.3-1.4-3.6-3.7-3.6
			c-3,0-3.7,2.3-3.8,3.6H411.1z"/>
		<path id="XMLID_48_" class="st2" d="M266,84.7h5.1v23.1H266V84.7z"/>
		<path id="XMLID_50_" class="st2" d="M275,91h4.4v2.3h0.1c1.2-1.9,3.2-2.8,5.1-2.8c4.9,0,6.1,2.8,6.1,6.9v10.3h-4.6v-9.5
			c0-2.8-0.8-4.1-2.9-4.1c-2.5,0-3.6,1.4-3.6,4.8v8.8H275V91z"/>
		<path id="XMLID_52_" class="st2" d="M295.3,94.1h-2.8V91h2.8v-1.3c0-3,1.8-5.1,5.6-5.1c0.8,0,1.7,0.1,2.4,0.1v3.4
			c-0.6-0.1-1.1-0.1-1.7-0.1c-1.3,0-1.7,0.5-1.7,1.9v1h3.2v3.1h-3.2v13.7h-4.6V94.1z"/>
		<path id="XMLID_54_" class="st2" d="M308.8,100.5c0.1,2.9,1.5,4.2,4.1,4.2c1.8,0,3.3-1.1,3.6-2.2h4c-1.3,4-4,5.6-7.8,5.6
			c-5.3,0-8.6-3.6-8.6-8.8c0-5,3.5-8.8,8.6-8.8c5.7,0,8.5,4.8,8.1,9.9H308.8z M316.3,97.6c-0.4-2.3-1.4-3.6-3.7-3.6
			c-3,0-3.7,2.3-3.8,3.6H316.3z"/>
		<path id="XMLID_57_" class="st2" d="M324,84.7h4.6v12.4l5.8-6h5.4l-6.3,6.2l7,10.6H335l-4.6-7.5l-1.8,1.7v5.8H324V84.7z"/>
		<path id="XMLID_59_" class="st2" d="M353.6,96.9c-0.3-1.9-1.4-2.9-3.4-2.9c-2.9,0-3.9,3-3.9,5.4c0,2.4,0.9,5.3,3.8,5.3
			c2.2,0,3.4-1.3,3.7-3.4h4.4c-0.6,4.4-3.6,6.9-8.1,6.9c-5.1,0-8.5-3.6-8.5-8.6c0-5.2,3.1-9.1,8.6-9.1c4,0,7.6,2.1,7.9,6.3H353.6z"
			/>
		<path id="XMLID_61_" class="st2" d="M365.5,88.5h-4.6v-3.8h4.6V88.5z M360.9,91h4.6v16.7h-4.6V91z"/>
		<path id="XMLID_64_" class="st2" d="M366.8,109.8c0.3,0.1,0.6,0.1,1,0.1c0.9,0,1.8-0.2,1.8-1.5V91h4.6v17.6c0,3.4-1.3,5.1-5.9,5.1
			c-0.5,0-1,0-1.5-0.1V109.8z M374.2,88.5h-4.6v-3.8h4.6V88.5z"/>
		<path id="XMLID_67_" class="st2" d="M382,100.5c0.1,2.9,1.5,4.2,4.1,4.2c1.8,0,3.3-1.1,3.6-2.2h4c-1.3,4-4,5.6-7.8,5.6
			c-5.3,0-8.6-3.6-8.6-8.8c0-5,3.5-8.8,8.6-8.8c5.7,0,8.5,4.8,8.1,9.9H382z M389.4,97.6c-0.4-2.3-1.4-3.6-3.7-3.6
			c-3,0-3.7,2.3-3.8,3.6H389.4z"/>
	</g>
</g>
</svg>
