<?xml version="1.0" encoding="utf-8"?>
<!-- Generator: Adobe Illustrator 19.0.0, SVG Export Plug-In . SVG Version: 6.00 Build 0)  -->
<svg version="1.1" id="Layer_1" xmlns="http://www.w3.org/2000/svg" xmlns:xlink="http://www.w3.org/1999/xlink" x="0px" y="0px"
	 viewBox="-69.4 207.6 250.3 401.4" style="enable-background:new -69.4 207.6 250.3 401.4;" xml:space="preserve">
<style type="text/css">
	.st0{fill:#FFFFFF;}
</style>
<path class="st0" d="M55.7,207.6c-69,0-125.1,56.1-125.1,125.1v151.1c0,69,56.1,125.1,125.1,125.1s125.1-56.1,125.1-125.1V332.7
	C180.8,263.7,124.7,207.6,55.7,207.6z M165.8,332.7v2c-32.3,17-68.4,26.3-105.1,27.1v-41.8c10.6-2.3,18.5-11.7,18.5-23v-31.4
	c0-11.3-8-20.7-18.5-23v-19.8C119.1,225.3,165.8,273.7,165.8,332.7z M55.7,252c7.5,0,13.5,6.1,13.5,13.5v31.4
	c0,7.5-6.1,13.5-13.5,13.5s-13.5-6.1-13.5-13.5v-31.4C42.2,258.1,48.2,252,55.7,252z M50.7,222.7v19.8c-10.6,2.3-18.5,11.7-18.5,23
	v31.4c0,11.3,8,20.7,18.5,23v41.8C14,361-22.1,351.7-54.4,334.7v-2C-54.4,273.7-7.7,225.3,50.7,222.7z M55.7,594
	C-5,594-54.4,544.6-54.4,483.9V345.9c34,17,71.9,25.9,110.1,25.9c38.3,0,76.1-8.9,110.1-25.9v137.9C165.8,544.6,116.4,594,55.7,594z
	"/>
</svg>
